<?xml version="1.0" encoding="UTF-8"?>
<!-- Created with Inkscape (http://www.inkscape.org/) -->
<svg width="47.262" height="42.191" version="1.1" viewBox="0 0 47.262 42.191" xmlns="http://www.w3.org/2000/svg">
 <defs>
  <filter id="filter514" x="-.021699" y="-.052818" width="1.0683" height="1.1607" color-interpolation-filters="sRGB">
   <feFlood flood-color="rgb(0,0,0)" flood-opacity=".49804" result="flood"/>
   <feComposite in="flood" in2="SourceGraphic" operator="in" result="composite1"/>
   <feGaussianBlur in="composite1" result="blur" stdDeviation="0.4"/>
   <feOffset dx="1.1" dy="1" result="offset"/>
   <feComposite in="SourceGraphic" in2="offset" result="fbSourceGraphic"/>
   <feColorMatrix in="fbSourceGraphic" result="fbSourceGraphicAlpha" values="0 0 0 -1 0 0 0 0 -1 0 0 0 0 -1 0 0 0 0 1 0"/>
   <feFlood flood-color="rgb(0,0,0)" flood-opacity=".49804" in="fbSourceGraphic" result="flood"/>
   <feComposite in="flood" in2="fbSourceGraphic" operator="in" result="composite1"/>
   <feGaussianBlur in="composite1" result="blur" stdDeviation="0.4"/>
   <feOffset dx="1.1" dy="1" result="offset"/>
   <feComposite in="fbSourceGraphic" in2="offset" result="composite2"/>
  </filter>
 </defs>
 <g transform="translate(46.17 38.271)">
  <g transform="scale(.5 1)" fill="#fff" filter="url(#filter514)" stroke-width="2.8445" aria-label="VIII">
   <path d="m-86.143-31.514q-0.50912-1.6292-1.3237-2.1383-0.81459-0.56003-2.291-0.56003h-0.66185v-2.1383h14.001v2.1383h-1.171q-3.0547 0-3.0547 2.4438 0 0.40729 0.10182 0.8655 0.10182 0.45821 0.30547 1.0182l5.6003 16.546q0.76368 2.2401 1.3237 4.3784 0.56003 2.1383 0.96732 3.9711 0.40729-1.8328 0.96732-3.9202 0.56003-2.0874 1.3746-4.4293l5.6003-16.19q0.20365-0.61094 0.30547-1.171 0.15274-0.61094 0.15274-1.0182 0-2.4947-3.3602-2.4947h-1.171v-2.1383h12.422v2.1383h-0.96732q-1.4764 0-2.2401 0.76368-0.76368 0.71276-1.6292 3.2074l-10.539 30.242h-3.7166z"/>
   <path d="m-54.119 0v-2.1383h0.66185q1.731 0 2.9529-0.61094 1.2219-0.66185 1.2219-3.0547v-24.743q0-2.3928-1.2219-3.0038-1.2219-0.66185-2.9529-0.66185h-0.66185v-2.1383h14.815v2.1383h-0.66185q-1.731 0-2.9529 0.66185-1.2219 0.61094-1.2219 3.0038v24.743q0 2.3928 1.2219 3.0547 1.2219 0.61094 2.9529 0.61094h0.66185v2.1383z"/>
   <path d="m-35.435 0v-2.1383h0.66185q1.731 0 2.9529-0.61094 1.2219-0.66185 1.2219-3.0547v-24.743q0-2.3928-1.2219-3.0038-1.2219-0.66185-2.9529-0.66185h-0.66185v-2.1383h14.815v2.1383h-0.66185q-1.731 0-2.9529 0.66185-1.2219 0.61094-1.2219 3.0038v24.743q0 2.3928 1.2219 3.0547 1.2219 0.61094 2.9529 0.61094h0.66185v2.1383z"/>
   <path d="m-16.75 0v-2.1383h0.66185q1.731 0 2.9529-0.61094 1.2219-0.66185 1.2219-3.0547v-24.743q0-2.3928-1.2219-3.0038-1.2219-0.66185-2.9529-0.66185h-0.66185v-2.1383h14.815v2.1383h-0.66185q-1.731 0-2.9529 0.66185-1.2219 0.61094-1.2219 3.0038v24.743q0 2.3928 1.2219 3.0547 1.2219 0.61094 2.9529 0.61094h0.66185v2.1383z"/>
  </g>
 </g>
</svg>
